<?xml version="1.0" standalone="no"?>
<!DOCTYPE svg PUBLIC "-//W3C//DTD SVG 20010904//EN"
 "http://www.w3.org/TR/2001/REC-SVG-20010904/DTD/svg10.dtd">
<svg version="1.0" xmlns="http://www.w3.org/2000/svg"
 width="736.000000pt" height="802.000000pt" viewBox="0 0 736.000000 802.000000"
 preserveAspectRatio="xMidYMid meet">
<metadata>
Created by potrace 1.16, written by Peter Selinger 2001-2019
</metadata>
<g transform="translate(0.000000,802.000000) scale(0.100000,-0.100000)"
fill="#000000" stroke="none">
<path d="M5020 7371 c-159 -23 -284 -93 -375 -209 -72 -92 -109 -181 -140
-338 -17 -91 -38 -308 -33 -339 4 -21 -3 -25 -95 -55 -133 -44 -338 -152 -362
-191 -4 -5 -50 -9 -103 -9 -251 -1 -456 -96 -619 -288 -52 -62 -67 -81 -91
-118 -4 -6 -56 -24 -117 -39 -240 -61 -364 -116 -453 -202 l-47 -45 -70 16
c-52 13 -79 26 -105 50 -46 43 -119 72 -202 81 l-67 7 -78 84 c-63 68 -88 88
-133 105 -30 12 -66 22 -80 24 -67 10 -260 57 -279 69 -4 3 -54 12 -112 22
-57 9 -121 25 -141 35 -50 26 -91 24 -124 -4 -24 -21 -27 -31 -27 -83 0 -61
16 -106 50 -136 22 -20 93 -47 143 -54 75 -10 96 -17 137 -40 24 -14 43 -29
43 -35 0 -15 -253 -134 -335 -158 -80 -23 -351 -118 -440 -154 -189 -76 -243
-103 -278 -137 -35 -34 -39 -42 -39 -88 1 -76 27 -116 84 -133 35 -10 87 -4
128 13 14 6 34 14 45 19 38 16 250 90 315 110 36 10 99 30 140 43 41 14 87 27
101 30 l26 6 -1 -101 c-1 -95 0 -101 24 -120 48 -38 105 -62 148 -62 37 0 43
-4 49 -25 4 -17 21 -32 61 -49 72 -34 116 -39 148 -18 34 22 41 13 17 -22 -11
-15 -32 -55 -48 -88 -15 -33 -41 -89 -59 -125 -55 -115 -38 -200 47 -235 102
-41 159 -1 242 172 25 54 48 99 49 101 2 1 32 -14 67 -35 l64 -38 135 1 c120
0 145 3 225 29 107 34 181 72 273 141 34 26 71 39 172 63 169 41 164 41 157
-11 -11 -78 24 -281 73 -423 74 -218 83 -300 51 -480 -5 -27 -14 -81 -20 -119
-6 -39 -13 -71 -15 -73 -2 -2 -45 16 -97 41 -139 65 -188 86 -254 111 -98 37
-269 120 -397 192 -323 183 -368 196 -562 153 -115 -25 -179 -56 -266 -125
-169 -135 -199 -191 -207 -391 -10 -228 48 -399 188 -561 39 -46 63 -104 110
-272 77 -275 93 -316 153 -391 114 -141 253 -242 509 -370 88 -45 172 -89 186
-98 14 -9 33 -21 42 -27 140 -85 278 -215 322 -302 15 -28 47 -72 73 -98 30
-31 56 -71 75 -119 18 -43 47 -89 73 -116 82 -87 129 -155 222 -319 62 -110
165 -228 235 -270 171 -101 450 -118 549 -34 52 43 64 78 64 178 0 103 -22
183 -80 292 -71 131 -157 200 -387 312 -143 69 -152 75 -245 169 -54 54 -113
124 -132 157 -39 65 -81 112 -184 200 -73 63 -99 99 -152 205 -70 141 -160
380 -143 380 5 0 51 -16 102 -36 209 -82 337 -116 437 -116 94 -1 154 12 355
74 151 46 169 50 320 58 147 9 221 17 300 35 44 10 244 85 285 106 54 30 63
26 56 -23 -7 -48 10 -158 50 -315 25 -103 26 -106 9 -151 -20 -52 -47 -103
-147 -275 -80 -136 -93 -184 -66 -239 39 -79 193 -205 262 -215 51 -7 117 26
189 95 70 67 164 137 317 238 268 176 335 242 397 394 17 41 36 102 43 135 17
83 14 226 -6 320 -10 44 -18 121 -18 170 0 77 3 98 26 146 40 86 147 242 242
354 252 295 338 451 392 710 24 116 22 395 -4 535 l-20 105 25 75 c24 71 25
79 15 170 -20 169 -68 275 -159 354 -34 29 -146 76 -193 80 -14 2 -46 6 -73
11 -26 4 -73 4 -104 0 -53 -6 -61 -11 -118 -69 -33 -34 -75 -86 -92 -116 -17
-30 -79 -116 -138 -190 -112 -142 -161 -207 -223 -302 -43 -65 -125 -154 -196
-213 -27 -22 -63 -52 -81 -67 -18 -16 -35 -28 -38 -28 -5 0 5 37 24 85 10 28
63 197 65 212 1 6 28 43 61 81 134 160 150 184 181 265 53 143 121 426 122
509 0 17 8 31 20 38 35 19 344 90 392 90 42 0 48 -3 54 -25 9 -35 107 -122
152 -135 20 -5 54 -10 74 -10 27 0 47 -8 73 -31 35 -31 38 -32 103 -26 59 6
69 10 91 39 14 18 25 41 23 53 -1 15 10 26 50 44 35 17 54 32 62 52 6 16 18
31 27 34 10 3 22 11 27 18 15 17 23 89 13 106 -5 8 -3 31 5 57 18 62 6 87 -65
132 l-58 38 26 32 c14 18 34 32 44 32 11 0 17 8 17 23 0 35 16 51 62 64 l43
13 -59 -5 c-74 -7 -70 1 7 13 39 6 57 6 57 -2 0 -6 9 -2 19 9 23 24 37 65 22
65 -19 0 -12 21 18 51 28 27 30 35 33 118 2 49 0 87 -4 84 -5 -2 -8 -42 -8
-89 0 -46 -4 -84 -8 -84 -4 0 -7 17 -6 38 l3 37 -7 -34 c-4 -19 -16 -39 -26
-45 -46 -26 -55 -39 -44 -59 8 -16 7 -19 -4 -15 -9 4 -19 -4 -26 -21 -8 -18
-30 -36 -64 -52 -40 -18 -56 -32 -63 -54 -15 -43 -44 -83 -66 -90 -17 -6 -74
10 -134 36 -70 31 -188 24 -262 -14 -35 -18 -61 -18 -217 8 -53 8 -114 15
-136 15 -25 0 -40 5 -40 13 0 6 14 55 30 106 43 134 59 209 76 348 12 107 12
135 -1 235 -8 62 -22 138 -31 168 -9 30 -18 64 -21 76 -8 35 -75 116 -137 165
-74 61 -155 103 -233 123 -73 19 -246 28 -323 17z m158 -20 c19 -1 14 -25 -9
-45 -78 -67 -198 -120 -317 -141 -86 -15 -115 -11 -107 16 3 11 7 28 11 39 7
26 105 86 171 105 57 17 185 34 218 29 11 -1 26 -3 33 -3z m190 -33 c89 -27
232 -116 246 -154 16 -42 9 -47 -56 -41 -70 6 -51 -7 26 -18 l46 -7 0 -47 c0
-54 -20 -138 -53 -219 l-22 -57 -42 2 c-23 1 -74 15 -114 32 -40 17 -75 29
-77 27 -7 -7 81 -44 149 -62 35 -10 65 -19 67 -20 6 -4 -59 -126 -125 -236
-57 -94 -68 -108 -91 -108 -41 0 -115 25 -162 55 l-42 26 6 87 5 87 -14 -85
c-7 -47 -14 -86 -14 -87 -5 -13 -97 -53 -133 -58 -79 -12 -91 -4 -118 72 -13
37 -25 62 -28 55 -2 -6 6 -38 18 -69 l21 -58 -22 -18 c-22 -17 -23 -17 -57 15
-19 18 -61 64 -94 101 -57 66 -59 70 -43 90 22 31 85 159 85 174 0 7 3 13 8
13 4 0 17 -40 29 -88 24 -96 41 -147 48 -140 2 2 -9 45 -24 95 -16 50 -31 107
-35 126 l-6 35 75 7 c41 4 75 11 75 17 0 6 -8 7 -17 4 -9 -4 -42 -9 -74 -13
-64 -6 -62 -8 -72 72 -2 17 -5 -1 -6 -40 -1 -60 -7 -81 -47 -163 -25 -53 -50
-92 -57 -90 -7 2 -19 18 -27 36 -8 17 -18 32 -21 32 -9 0 -49 -95 -49 -117 -1
-10 -7 -31 -15 -48 -14 -28 -14 -26 -9 45 7 104 31 265 48 325 11 40 30 66 90
128 l75 78 4 -78 3 -78 2 91 2 91 71 7 c128 13 240 56 337 128 l52 39 -4 -73
-5 -73 11 67 10 68 58 -50 c54 -47 192 -121 222 -119 9 0 8 2 -2 6 -137 51
-296 169 -275 204 8 13 79 3 163 -23z m-647 -160 c-12 -35 -79 -123 -113 -146
-19 -14 -18 -12 3 29 26 52 109 162 116 155 3 -2 0 -20 -6 -38z m980 -133 c5
-22 12 -46 14 -52 2 -7 1 -13 -3 -13 -12 0 -72 126 -72 151 0 21 2 20 25 -11
14 -19 30 -53 36 -75z m-9 -55 c47 -72 62 -158 55 -311 -6 -123 -29 -268 -35
-214 -5 56 -23 135 -30 135 -4 -1 -19 -17 -34 -36 l-27 -35 -15 28 c-9 16 -15
21 -16 12 0 -8 6 -21 13 -28 14 -16 -16 -42 -135 -120 l-78 -51 -16 25 c-16
25 -15 28 34 108 27 45 69 119 93 164 24 46 47 83 52 83 4 0 7 -15 8 -32 1
-35 26 -142 28 -121 0 7 -3 34 -9 60 -20 101 -19 121 11 201 16 42 34 105 41
140 6 34 14 59 18 55 3 -5 22 -33 42 -63z m-1152 -740 c9 -42 10 -64 3 -71 -7
-7 -12 0 -17 23 -11 61 -26 222 -24 273 0 35 4 17 13 -57 7 -59 18 -135 25
-168z m161 204 c113 -86 191 -198 220 -313 l13 -53 -32 -29 c-27 -25 -41 -29
-88 -29 -55 0 -57 1 -119 63 -87 87 -99 117 -99 252 0 114 13 172 36 159 7 -4
38 -27 69 -50z m407 -1 c2 48 11 58 31 33 17 -20 108 -57 158 -65 l43 -6 -106
-158 c-92 -138 -108 -156 -122 -145 -14 12 -14 10 -3 -9 13 -26 4 -30 -23 -10
-15 11 -16 21 -7 97 6 46 10 98 10 115 -1 16 -7 -19 -15 -78 -12 -104 -24
-137 -47 -137 -7 0 -7 4 1 12 18 18 15 30 -6 24 -14 -5 -22 6 -42 58 -13 36
-27 63 -31 60 -4 -2 -11 1 -15 7 -4 8 -3 9 4 5 18 -11 15 1 -22 97 l-35 87 42
0 c59 1 116 15 146 38 l26 19 6 -46 6 -46 1 48z m-208 -93 c16 -41 30 -76 30
-78 0 -2 -23 27 -50 64 -47 61 -50 67 -33 79 10 7 19 12 20 11 1 -1 16 -35 33
-76z m-430 61 c0 -9 -87 -41 -111 -41 -23 0 9 24 49 36 47 15 62 16 62 5z
m1130 -68 c0 -70 -23 -169 -51 -226 -61 -123 -184 -182 -285 -138 -56 25 -70
51 -54 105 22 75 78 141 174 207 58 40 186 108 204 109 8 0 12 -18 12 -57z
m-1118 -18 c3 -46 -1 -56 -37 -105 l-40 -54 -6 45 c-8 51 -29 98 -55 120 -15
13 -10 16 52 35 38 12 72 19 76 15 3 -3 8 -29 10 -56z m887 46 c9 -16 5 -23
-24 -45 -19 -14 -51 -43 -71 -64 l-37 -37 22 35 c91 144 92 145 110 111z
m-1041 -6 c-6 -6 -103 -41 -152 -56 -59 -17 -10 11 69 40 72 26 98 31 83 16z
m2392 -20 c-13 -14 -26 -23 -28 -20 -3 3 5 16 18 30 13 14 26 23 28 20 3 -3
-5 -16 -18 -30z m-2378 -32 c45 -47 61 -119 38 -163 -13 -25 -90 -70 -119 -70
-12 0 -31 5 -42 10 -11 7 -26 7 -35 2 -12 -6 -6 -11 26 -21 82 -24 200 -171
200 -249 0 -35 -54 -134 -93 -170 l-25 -24 -7 59 c-10 88 -41 185 -72 225 -56
73 -112 107 -223 136 l-72 19 74 13 c41 7 96 11 121 9 26 -2 47 -1 47 3 0 17
-139 7 -255 -17 -31 -7 -31 -7 -27 34 4 36 0 45 -27 70 l-31 29 87 7 c49 3 95
10 103 16 37 23 266 106 301 109 3 0 17 -12 31 -27z m2358 -43 c0 -6 -12 -15
-26 -20 -36 -14 -39 -13 -19 10 19 21 45 27 45 10z m-2201 -93 c1 -27 -1 -28
-29 -22 -16 4 -30 3 -30 -2 0 -5 12 -10 26 -11 14 -1 30 -4 34 -7 16 -10 42
-118 35 -149 -6 -32 -73 -138 -90 -143 -5 -1 -23 24 -39 57 -15 33 -50 81 -77
107 -51 50 -58 63 -35 63 7 0 33 16 57 35 24 19 53 35 64 35 13 0 16 3 8 8 -8
5 0 22 25 55 35 45 37 46 44 25 3 -13 6 -36 7 -51z m-673 5 c26 -20 44 -54 44
-80 0 -25 -25 -45 -85 -67 -78 -28 -164 -73 -233 -122 l-64 -45 -36 35 c-21
19 -52 42 -70 51 -32 16 -32 17 -15 40 10 13 46 45 81 70 147 110 321 164 378
118z m2724 -17 c-13 -14 -26 -23 -28 -20 -7 7 29 45 41 45 6 0 0 -11 -13 -25z
m-1969 -50 c13 -25 43 -66 67 -90 l44 -45 -33 -49 -34 -49 -28 61 c-46 100
-69 217 -43 217 3 0 15 -20 27 -45z m1659 8 c-1 -21 -30 -43 -56 -44 -16 0
-38 -5 -49 -10 -15 -7 -7 -8 27 -4 41 4 47 2 42 -13 -5 -16 -5 -16 9 1 19 23
26 22 99 -13 64 -31 91 -49 157 -107 l36 -31 -25 -27 c-14 -15 -37 -36 -52
-46 -25 -19 -29 -19 -58 -4 -21 11 -30 23 -31 43 -1 17 -3 20 -6 10 -7 -29
-21 -21 -33 20 -12 35 -30 65 -30 48 0 -4 5 -27 11 -52 13 -50 -1 -79 -32 -71
-11 3 -16 0 -13 -8 9 -22 -54 -53 -100 -49 -29 3 -37 1 -26 -6 8 -5 30 -10 48
-10 17 0 32 -3 32 -6 0 -3 -20 -29 -45 -57 -43 -49 -54 -77 -18 -44 17 15 23
11 92 -58 66 -65 72 -73 53 -79 -27 -9 -70 19 -78 50 -7 28 -13 30 -29 7 -19
-25 -95 -7 -112 27 -9 18 -13 20 -13 8 0 -26 -14 -22 -53 12 -72 63 -71 128 4
214 22 25 34 44 27 41 -8 -3 -32 -29 -53 -58 -53 -71 -62 -77 -115 -77 -25 0
-51 -5 -57 -11 -9 -9 -19 -4 -39 20 -14 18 -29 29 -32 26 -3 -3 4 -15 16 -28
l21 -23 -110 -23 c-60 -13 -120 -25 -132 -27 -12 -2 -32 -6 -45 -10 -22 -6
-23 -4 -20 27 l4 34 110 3 c134 3 160 10 42 11 -72 1 -89 4 -97 19 -10 16 -10
16 -11 0 0 -11 -8 -18 -20 -18 -14 0 -20 7 -20 24 0 31 26 55 33 29 4 -14 5
-12 6 6 1 30 41 101 57 101 6 0 11 6 11 13 -2 14 35 91 46 95 4 2 7 12 7 23 0
11 7 35 14 54 l15 35 72 0 72 0 -21 -23 c-12 -13 -22 -27 -22 -32 0 -5 7 0 15
11 19 29 58 35 141 23 97 -14 100 -13 189 15 79 24 145 33 145 19z m123 -39
c78 -29 94 -47 64 -72 -18 -15 -64 15 -48 31 6 6 11 16 11 22 0 5 -7 2 -14 -8
-14 -18 -16 -18 -63 1 -26 11 -57 23 -68 27 -20 6 -20 7 0 21 11 8 24 13 30
11 5 -2 45 -17 88 -33z m-1279 -17 c16 -11 17 -17 7 -36 -16 -30 -55 -25 -59
8 -2 13 2 28 10 32 18 12 21 11 42 -4z m-64 -43 c0 -11 -9 -40 -21 -63 -11
-24 -18 -45 -16 -48 3 -2 14 16 26 41 14 33 26 46 40 46 26 0 34 -17 60 -126
28 -122 28 -126 -6 -113 -16 6 -63 11 -105 12 -43 1 -78 3 -78 4 0 2 14 28 31
59 16 31 28 58 25 61 -2 3 -14 -13 -25 -35 -23 -44 -41 -62 -41 -38 0 8 -16
35 -35 61 -20 25 -33 50 -30 55 3 5 19 11 35 15 19 4 48 27 77 60 48 54 63 56
63 9z m542 -47 c-24 -45 -51 -93 -62 -107 l-20 -25 -24 30 c-14 17 -25 33 -26
36 0 4 17 18 38 32 21 14 58 47 83 75 24 27 46 48 48 46 3 -2 -14 -41 -37 -87z
m-412 36 c32 -73 72 -107 145 -123 l30 -6 -32 -17 c-18 -10 -57 -37 -88 -62
-30 -25 -57 -45 -60 -45 -3 0 -5 8 -5 18 0 9 -11 63 -25 119 -20 82 -22 108
-14 132 6 17 15 31 20 31 4 0 17 -21 29 -47z m-1104 6 c142 -53 215 -167 226
-350 l3 -63 -64 -39 c-36 -22 -88 -47 -117 -57 l-52 -18 -4 57 c-5 71 -36 136
-91 190 -95 95 -232 147 -361 139 -36 -2 -66 -3 -66 -2 0 15 258 152 315 167
36 10 157 -4 211 -24z m-2737 -13 c37 -13 98 -27 136 -31 84 -9 91 -12 71 -34
-24 -26 -46 -87 -46 -126 0 -39 0 -39 -50 -26 -19 5 -47 12 -62 15 -39 9 -46
52 -17 113 13 26 25 53 28 58 2 6 -3 4 -12 -3 -23 -19 -50 -97 -45 -127 6 -29
0 -30 -47 -11 -43 18 -68 56 -68 106 0 35 24 90 40 90 3 0 35 -11 72 -24z
m5224 -6 c26 -16 52 -41 57 -54 12 -33 -5 -97 -25 -89 -8 3 -15 13 -15 24 0
10 -12 26 -26 36 -14 10 -37 28 -52 40 l-27 22 44 1 c28 0 51 -6 63 -17 10 -9
18 -11 18 -5 0 16 -27 28 -78 37 -35 6 -41 9 -31 21 16 19 18 18 72 -16z
m-1890 -195 c19 -30 23 -45 16 -62 -5 -13 -5 -23 0 -23 5 0 11 6 14 13 6 15
22 -4 77 -93 22 -36 46 -72 52 -81 11 -16 5 -52 -33 -201 l-10 -37 -35 24
c-37 25 -107 41 -149 33 -14 -3 -25 -1 -25 4 0 5 23 74 52 153 38 106 55 142
66 138 12 -5 12 -3 1 15 -7 12 -15 19 -18 17 -2 -3 -9 -1 -15 4 -6 5 -51 30
-101 56 -49 26 -92 49 -94 51 -2 2 15 24 37 48 23 25 48 62 57 83 l16 38 34
-70 c18 -38 44 -88 58 -110z m136 145 c53 -13 121 -104 121 -161 0 -23 -36
-91 -77 -147 l-25 -33 -30 41 c-43 58 -128 201 -128 215 0 6 14 33 30 59 26
40 34 47 53 41 12 -3 37 -10 56 -15z m-3126 -17 c37 -10 67 -20 67 -23 0 -3
-18 -16 -39 -29 -45 -28 -91 -94 -91 -133 0 -15 -2 -28 -5 -28 -2 0 -20 11
-40 24 -20 14 -41 26 -48 29 -17 5 -11 90 9 130 28 54 42 57 147 30z m1730 6
c29 -15 87 -70 87 -83 0 -5 -9 -19 -20 -31 -18 -19 -27 -21 -63 -14 -23 4 -68
8 -99 9 -40 0 -58 4 -58 13 0 22 90 117 111 117 11 0 30 -5 42 -11z m2087
-107 c0 -21 -207 -252 -262 -293 l-26 -19 -10 52 -10 53 -1 -42 -1 -41 -47 14
c-25 8 -65 13 -87 13 -39 -1 -39 -2 14 -10 174 -29 153 -69 -25 -50 -149 17
-216 44 -133 55 86 11 91 15 16 11 -59 -3 -78 0 -82 11 -3 7 18 50 46 95 l52
81 98 -4 c113 -4 122 -10 137 -83 l10 -50 -4 57 -5 56 58 52 c31 28 89 67 127
86 l70 34 33 -35 c17 -19 32 -38 32 -43z m-3634 52 c76 -17 104 -31 154 -73
33 -29 28 -41 -8 -22 -43 22 -145 20 -257 -4 -24 -5 -27 -4 -12 5 9 6 17 15
17 21 0 12 -53 -14 -99 -49 l-33 -25 7 24 c13 43 49 90 90 114 47 29 54 30
141 9z m4697 -52 c-3 -21 -11 -49 -18 -64 -8 -17 -9 -28 -4 -28 6 0 9 -10 7
-22 -4 -27 -50 -37 -74 -17 -23 19 -16 29 19 30 l32 2 -35 6 c-54 9 -52 40 7
105 41 46 50 52 60 39 7 -8 9 -30 6 -51z m-2774 9 c86 -27 157 -76 206 -143
45 -61 72 -140 61 -183 -6 -22 -12 -25 -56 -25 -47 0 -51 2 -92 52 -131 157
-193 201 -334 238 -43 11 -83 22 -88 23 -5 2 3 14 18 28 18 17 40 26 69 28 23
1 44 5 47 8 9 9 104 -6 169 -26z m2561 -22 c0 -5 5 -7 11 -4 5 4 26 -4 44 -17
35 -23 44 -38 25 -38 -5 0 -10 5 -10 11 0 5 -4 7 -10 4 -5 -3 -27 2 -47 11
-48 22 -46 21 -38 33 8 14 25 14 25 0z m270 -32 c0 -18 -7 -42 -15 -53 -14
-18 -15 -18 -11 6 3 14 5 37 5 53 1 39 21 34 21 -6z m-34 -19 c-7 -41 -13 -56
-19 -47 -8 9 6 89 15 89 7 0 8 -16 4 -42z m-4618 17 c63 -8 162 -61 162 -86 0
-4 -12 -11 -27 -16 -21 -7 -8 -9 50 -7 128 3 233 -35 284 -104 33 -45 61 -105
68 -147 l7 -40 -20 30 c-41 65 -139 115 -224 115 -24 0 -54 10 -82 28 -24 16
-73 37 -107 47 -45 13 -76 30 -105 58 -54 51 -131 71 -219 57 -75 -12 -85 -12
-85 -1 0 27 178 84 235 75 11 -1 40 -5 63 -9z m1327 4 c22 -6 71 -24 108 -41
88 -38 106 -32 22 7 -36 17 -65 33 -65 36 0 7 99 -5 158 -19 41 -10 175 -83
187 -102 10 -17 -41 -11 -89 10 -57 24 -59 12 -6 -30 22 -17 40 -36 40 -41 0
-5 -24 -9 -52 -9 -106 -1 -233 -44 -360 -123 -46 -28 -126 -73 -178 -99 -85
-43 -102 -48 -162 -48 l-67 0 -36 59 c-19 33 -59 80 -86 105 -50 45 -51 47
-35 70 8 14 31 36 49 50 68 52 292 143 422 171 76 17 100 17 150 4z m1288 -55
c48 -25 87 -46 87 -48 0 -6 -51 -152 -81 -233 -21 -58 -39 -81 -39 -50 0 28
-63 134 -97 165 -22 19 -52 35 -75 38 -21 4 -38 9 -38 12 0 3 15 23 34 46 18
23 43 60 55 84 26 51 23 51 154 -14z m1734 35 c4 -15 8 -17 13 -8 7 10 14 10
39 -1 17 -7 29 -16 26 -20 -3 -5 4 -6 15 -3 14 4 24 -3 37 -25 18 -32 41 -43
74 -37 10 2 19 0 19 -4 0 -12 -50 -44 -57 -37 -4 3 -12 1 -18 -4 -19 -16 -65
9 -65 34 0 15 -3 17 -9 8 -13 -21 -71 12 -72 41 -1 17 -2 18 -6 4 -4 -16 -6
-16 -34 0 -35 21 -37 36 -7 57 30 21 39 20 45 -5z m-862 -134 c-20 -165 -20
-165 -65 -165 -34 0 -46 -7 -90 -50 l-50 -51 -1 61 c-1 33 -2 64 -3 68 -1 7
217 243 220 239 1 -1 -4 -47 -11 -102z m-3558 63 c15 -7 49 -31 75 -55 26 -24
55 -43 65 -43 40 0 150 -47 172 -73 8 -10 31 -15 70 -15 72 0 147 -36 188 -89
38 -50 40 -131 3 -183 l-25 -35 -5 52 c-7 70 -45 114 -113 133 -48 14 -95 1
-147 -40 -22 -17 -40 -30 -41 -28 0 1 -2 12 -4 22 -10 54 -19 68 -74 109 -32
24 -81 50 -107 57 -27 7 -65 26 -86 42 -57 44 -103 60 -155 52 -27 -4 -53 -2
-66 5 -12 6 -40 14 -61 19 l-40 8 55 26 c30 14 72 30 94 36 58 14 169 14 202
0z m4367 6 c9 -3 16 -13 16 -22 0 -8 3 -12 6 -9 4 4 24 -3 45 -15 l39 -22 -22
-23 c-12 -13 -19 -26 -16 -29 4 -3 11 4 18 15 13 25 42 27 64 5 22 -21 20 -29
-14 -66 l-30 -33 -24 27 c-13 15 -26 25 -29 22 -6 -6 -117 97 -117 109 0 13
30 47 41 47 4 0 14 -3 23 -6z m-4631 -103 c12 -12 15 -11 -97 -37 -104 -24
-129 -45 -152 -131 -22 -82 -42 -133 -52 -133 -4 0 -6 16 -4 35 6 48 -13 89
-59 129 l-38 32 82 28 c45 15 105 40 133 56 28 15 61 30 75 33 34 7 100 0 112
-12z m2770 -15 c47 -19 91 -74 122 -154 l28 -70 -33 -79 c-18 -43 -50 -116
-72 -163 -33 -71 -41 -82 -48 -65 -7 16 -9 13 -9 -16 -1 -23 -17 -65 -45 -115
-63 -115 -142 -234 -155 -234 -6 0 -61 363 -92 602 -4 37 -11 78 -15 93 -6 25
-4 24 62 -22 107 -74 197 -168 219 -230 11 -29 22 -53 27 -53 10 0 -17 75 -42
114 -25 41 -101 111 -172 160 -67 45 -118 93 -118 111 0 6 19 17 43 24 61 18
161 68 182 91 21 24 71 26 118 6z m-2604 -26 c36 -18 81 -63 81 -80 0 -4 -8
-10 -19 -13 -12 -3 -27 6 -45 29 -15 19 -45 43 -66 54 -22 11 -40 23 -40 25 0
12 54 3 89 -15z m-59 -20 c42 -22 80 -56 80 -73 0 -7 -41 -28 -90 -48 l-90
-37 -6 25 c-8 29 -72 79 -114 88 -41 9 -46 23 -13 31 15 4 57 14 93 24 69 19
85 18 140 -10z m851 -17 c53 -19 84 -39 120 -75 41 -41 88 -108 76 -108 -2 0
-30 11 -63 24 -33 14 -88 28 -122 32 -47 5 -62 10 -62 23 0 9 -11 42 -24 74
-28 67 -27 68 75 30z m2344 -19 c27 -8 67 -14 89 -14 l39 0 -7 -67 c-4 -38 -9
-82 -12 -100 l-6 -31 -34 20 c-36 21 -136 29 -181 14 -24 -8 -26 -24 19 157 9
37 15 46 27 41 9 -4 38 -13 66 -20z m-3005 -10 c0 -2 -7 -4 -15 -4 -8 0 -15 4
-15 10 0 5 7 7 15 4 8 -4 15 -8 15 -10z m3309 -95 l1 -46 -58 -12 c-32 -6 -75
-20 -96 -32 l-38 -20 5 33 c4 18 9 60 13 94 l6 61 77 9 c76 9 76 9 82 -16 4
-14 7 -46 8 -71z m-3692 72 c23 -11 49 -31 59 -46 16 -25 16 -29 -9 -103 -14
-42 -29 -92 -32 -109 -4 -18 -11 -36 -17 -39 -20 -12 -104 -7 -134 9 -61 32
-61 35 -15 177 l43 130 31 0 c18 0 51 -9 74 -19z m-302 -3 c29 -13 60 -59 69
-104 10 -47 -23 -78 -121 -114 l-83 -30 0 35 c0 46 -20 92 -57 132 l-30 32 51
20 c115 44 132 47 171 29z m807 -50 c46 -29 48 -32 48 -76 0 -38 -5 -52 -32
-79 -38 -39 -64 -44 -53 -10 4 12 9 39 12 60 5 33 1 42 -31 71 -20 19 -53 40
-73 47 -33 11 -35 13 -18 20 33 14 97 0 147 -33z m3373 20 c-3 -13 -14 -63
-25 -113 -11 -49 -22 -99 -25 -109 -9 -37 -55 -171 -63 -184 -14 -21 -125 -84
-118 -66 15 39 35 149 47 254 13 127 27 161 87 210 24 20 48 30 69 30 29 0 33
-3 28 -22z m-3465 -43 c22 -14 44 -33 50 -44 13 -25 13 -64 0 -56 -5 3 -12
-12 -16 -34 -11 -67 -21 -74 -76 -56 -34 12 -48 23 -52 41 -8 31 -78 82 -133
97 -24 6 -43 14 -43 18 0 3 35 20 78 37 89 37 130 36 192 -3z m-934 -4 c50
-30 90 -132 66 -167 -4 -6 -49 -25 -100 -42 -85 -28 -92 -29 -87 -12 10 31
-13 97 -47 135 -17 20 -29 37 -27 38 6 5 153 66 159 67 3 0 19 -9 36 -19z
m5084 -21 c80 -24 185 -85 215 -125 13 -16 30 -56 39 -89 19 -63 15 -89 -4
-32 -28 87 -148 146 -296 146 -130 0 -164 -30 -179 -157 -4 -32 -13 -69 -20
-83 -7 -14 -16 -46 -20 -72 -6 -42 -3 -53 39 -131 42 -77 59 -137 38 -137 -5
0 -27 16 -49 35 -23 19 -45 35 -51 35 -15 0 -77 -100 -106 -174 -38 -94 -66
-240 -66 -341 l0 -82 -62 -13 c-35 -8 -96 -31 -137 -52 l-74 -39 6 88 c15 229
102 495 207 637 44 60 120 184 120 196 0 22 -24 20 -58 -4 -48 -33 -67 -54
-192 -211 -160 -200 -277 -310 -550 -517 -132 -100 -208 -174 -334 -325 -79
-95 -109 -123 -59 -55 132 177 262 316 416 439 162 129 321 286 393 385 33 44
104 136 159 205 188 234 206 258 241 323 69 126 103 155 193 169 59 9 110 4
191 -19z m-3420 -7 c78 -22 107 -45 112 -90 10 -87 -33 -217 -82 -243 -10 -5
-36 -10 -58 -10 -53 0 -232 59 -182 60 18 0 82 63 100 99 19 37 17 140 -4 179
l-17 33 38 -6 c21 -4 63 -14 93 -22z m-324 -2 c73 -45 82 -150 18 -212 -29
-28 -36 -31 -44 -19 -5 8 -10 22 -10 31 0 39 -104 108 -162 109 -16 0 -28 4
-28 8 0 11 82 88 100 95 33 12 96 6 126 -12z m217 -96 c0 -66 -34 -129 -86
-160 -39 -22 -49 -25 -69 -14 -13 6 -25 13 -27 15 -2 2 23 32 56 66 51 54 62
72 78 132 l19 70 15 -35 c8 -19 15 -52 14 -74z m2144 82 c50 -26 57 -41 44
-94 -6 -27 -30 -106 -53 -176 l-41 -128 -29 30 c-40 41 -87 54 -168 49 l-68
-5 22 41 c13 23 47 97 77 165 35 80 61 126 74 132 28 12 107 4 142 -14z
m-2967 -29 c52 -22 100 -64 100 -88 0 -10 20 -26 50 -41 27 -13 49 -26 49 -29
1 -16 -55 -64 -105 -91 -49 -26 -64 -30 -100 -24 -48 7 -154 72 -154 94 0 26
32 176 42 194 11 21 43 17 118 -15z m-923 -5 c46 -40 70 -137 41 -160 -13 -10
-120 -49 -165 -60 -19 -4 -23 -1 -23 18 0 26 -29 80 -63 116 -11 13 -19 25
-16 27 5 4 126 60 149 69 29 11 57 7 77 -10z m4153 -12 c42 -19 48 -39 19 -72
-31 -35 -48 -71 -55 -118 -5 -34 -10 -41 -23 -35 -9 3 -26 9 -38 11 -29 7 -30
42 -3 102 11 24 18 46 15 49 -7 8 -65 -120 -65 -145 0 -17 6 -23 23 -23 12 0
28 -4 36 -9 9 -6 -5 -9 -38 -9 -49 0 -51 2 -51 27 0 14 11 53 25 85 13 33 23
62 20 64 -7 7 -48 -81 -61 -133 -21 -77 -21 -76 40 -69 30 4 63 3 73 -1 15 -6
12 -9 -17 -20 -19 -8 -49 -14 -67 -14 -21 -1 -37 -9 -50 -25 -11 -15 -33 -27
-56 -32 l-37 -6 29 83 c17 46 42 127 57 179 14 52 32 101 39 109 30 31 120 33
185 2z m243 22 c7 -14 -11 -185 -28 -268 -21 -103 -34 -123 -73 -117 -28 4
-30 7 -25 37 5 32 4 33 -38 40 -44 8 -44 8 -14 16 17 5 37 6 46 4 11 -4 27 7
44 27 45 53 65 106 64 173 l-2 60 -8 -61 c-13 -101 -54 -168 -109 -178 l-35
-6 31 19 c37 23 75 110 73 169 -1 20 -3 28 -5 17 -12 -58 -38 -134 -52 -152
-10 -12 -29 -25 -43 -28 l-26 -7 18 54 c17 52 18 77 5 128 -6 23 -2 28 46 52
50 25 122 37 131 21z m-2998 -87 c55 -25 84 -59 92 -109 5 -34 -5 -47 -88
-110 l-36 -27 -1 32 c-1 47 -49 108 -109 138 l-52 26 37 37 c45 45 83 48 157
13z m590 -134 c-8 -51 -35 -82 -72 -82 l-27 0 23 21 c30 28 56 91 67 159 l9
55 3 -55 c2 -30 0 -74 -3 -98z m-2208 116 c33 -36 63 -91 63 -115 0 -13 -9
-27 -21 -34 -28 -15 -95 -5 -120 17 -23 21 -25 73 -4 114 23 45 51 51 82 18z
m868 -62 c36 0 65 -5 65 -9 0 -4 -7 -37 -16 -73 -20 -79 -35 -90 -95 -68 -85
29 -89 35 -89 125 l0 80 35 -27 c29 -22 46 -27 100 -28z m633 -28 c54 -37 77
-82 68 -132 -4 -20 -10 -36 -14 -36 -5 0 -27 -18 -50 -39 -41 -38 -42 -39 -42
-15 0 66 -67 119 -141 112 -21 -2 -39 -1 -39 2 0 4 27 38 59 77 68 81 82 83
159 31z m-428 -75 c60 -27 114 -28 155 -4 20 11 38 21 40 21 2 0 -8 -23 -23
-51 -34 -65 -111 -129 -155 -129 -44 0 -108 24 -124 46 -16 22 -17 70 -2 130
l11 44 32 -20 c17 -12 47 -28 66 -37z m760 -17 c0 -62 -86 -146 -149 -146 -16
0 -41 10 -57 22 -16 12 -31 23 -33 24 -2 2 12 16 30 31 19 15 60 52 91 80 l57
52 31 -17 c23 -13 30 -24 30 -46z m185 -27 c64 -12 66 -14 60 -38 -10 -39 -60
-113 -97 -142 -80 -63 -140 -77 -190 -46 -41 26 -108 80 -108 87 0 3 19 12 43
19 52 16 117 88 117 130 0 15 2 30 6 33 3 3 27 -3 53 -13 27 -10 79 -24 116
-30z m1962 -8 c43 -20 63 -45 63 -80 0 -37 -111 -238 -161 -292 -47 -51 -48
-51 -94 -45 -74 12 -157 36 -187 54 l-27 17 70 104 c38 57 86 135 106 172 25
46 46 72 63 78 42 16 122 12 167 -8z m-1807 0 c0 -17 -101 -160 -152 -216 -52
-57 -75 -65 -135 -49 -26 7 -31 24 -8 24 59 0 187 120 207 194 12 45 20 51 71
55 9 0 17 -3 17 -8z m-753 -27 c22 -22 25 -32 21 -77 -3 -35 -15 -67 -35 -99
l-30 -47 -23 24 c-31 33 -82 48 -141 43 l-49 -5 32 56 c38 69 69 114 83 123 5
4 34 8 63 8 44 0 57 -5 79 -26z m3045 8 c12 -12 -3 -52 -19 -52 -11 0 -13 7
-9 25 5 20 3 25 -14 25 -11 0 -20 5 -20 11 0 12 48 4 62 -9z m147 -64 c-90
-106 -90 -107 -65 -43 19 45 33 64 68 86 23 15 47 28 51 28 4 1 -20 -32 -54
-71z m-350 48 c-2 -2 -22 -7 -44 -10 l-40 -6 40 13 c36 12 55 13 44 3z m145
-2 c12 -5 13 -10 5 -25 -13 -24 -39 -25 -39 -1 0 29 9 36 34 26z m-119 -14
c-3 -5 -11 -10 -16 -10 -6 0 -7 5 -4 10 3 6 11 10 16 10 6 0 7 -4 4 -10z
m-2666 -49 c22 -14 22 -15 5 -28 -10 -7 -43 -13 -73 -13 l-56 1 38 35 c22 20
43 32 50 28 7 -4 23 -14 36 -23z m2513 24 c3 -3 -1 -22 -8 -43 -14 -39 -17
-155 -5 -186 4 -10 7 12 8 52 2 95 27 182 53 182 24 0 24 -1 5 -64 -8 -27 -15
-65 -14 -85 1 -30 3 -27 14 24 21 100 33 125 62 125 20 0 24 -4 18 -17 -26
-65 -44 -129 -51 -180 -7 -58 -33 -112 -73 -147 -11 -11 -21 -27 -21 -37 0
-36 -10 -48 -35 -39 -47 18 -172 -2 -265 -44 -12 -5 -14 2 -12 44 l4 50 51 1
c29 1 66 5 82 9 25 6 20 8 -27 9 l-57 1 52 69 c29 38 72 112 97 164 37 80 49
97 75 105 39 13 41 13 47 7z m401 -1 c13 -5 11 -14 -11 -62 -41 -90 -63 -119
-124 -159 -57 -36 -58 -38 -58 -83 l0 -46 -40 4 c-29 3 -55 -4 -101 -27 -34
-17 -64 -31 -66 -31 -12 0 1 40 17 55 12 10 30 35 42 54 12 20 28 40 35 44 20
13 92 123 119 183 13 30 28 54 34 54 17 0 12 -20 -25 -91 -19 -38 -31 -69 -27
-69 4 0 26 36 48 79 35 71 59 100 71 87 5 -5 -32 -81 -59 -119 -11 -16 -18
-30 -15 -33 6 -6 97 129 97 144 0 18 36 27 63 16z m-2761 -147 c24 -15 26 -20
17 -41 -18 -39 -81 -67 -162 -72 -87 -6 -108 3 -155 68 l-34 48 19 31 c17 30
22 32 83 35 36 1 76 7 90 12 21 8 32 4 70 -27 25 -20 57 -45 72 -54z m824 55
c5 -4 20 -45 33 -92 29 -108 99 -290 112 -290 6 0 8 8 5 18 -17 51 -12 249 5
267 3 2 41 -10 85 -29 78 -33 79 -34 77 -67 -19 -264 -8 -463 33 -591 3 -12 2
-18 -3 -15 -16 10 -89 107 -128 172 l-37 60 6 -104 c4 -58 13 -162 22 -233 9
-70 14 -133 12 -139 -2 -5 -45 32 -96 84 l-92 94 0 104 c0 106 -16 186 -60
305 -23 62 -68 273 -70 329 -1 22 -2 61 -1 88 l1 47 43 0 c23 0 47 -4 53 -8z
m-1296 -44 c69 -36 70 -44 20 -150 -52 -112 -49 -107 -62 -84 -23 41 -134 70
-179 46 -10 -6 -19 -9 -19 -6 0 2 19 43 42 91 60 125 106 149 198 103z m158
-60 c12 -18 19 -34 17 -36 -5 -5 -75 18 -75 24 0 9 25 44 31 44 4 0 16 -15 27
-32z m467 -20 c9 -8 -88 -47 -173 -68 -94 -24 -184 -26 -202 -5 -11 13 -4 15
50 15 85 0 136 17 179 60 l36 35 52 -15 c29 -9 55 -19 58 -22z m2527 -29 c-8
-22 -25 -45 -36 -51 -12 -6 -31 -20 -43 -31 l-23 -20 0 39 c0 36 4 41 53 71
28 17 55 32 59 32 3 1 -1 -17 -10 -40z m-2980 -6 c15 -3 37 -17 50 -30 l23
-25 -25 7 c-38 12 -98 43 -106 57 -5 8 -2 9 12 4 10 -4 31 -10 46 -13z m4299
-70 c21 -117 19 -437 -4 -533 -23 -99 -44 -162 -75 -233 l-26 -59 -23 46 -23
46 29 88 c16 48 34 114 40 147 17 101 23 276 12 362 -8 66 -7 92 5 139 15 59
31 87 44 79 4 -2 13 -39 21 -82z m-1375 -77 c-17 -45 -38 -93 -47 -106 -14
-21 -14 -16 -5 58 9 62 16 86 35 106 45 48 50 30 17 -58z m-3196 52 c58 -30
70 -50 50 -85 -32 -58 -131 -84 -184 -49 -27 17 -39 66 -26 101 10 26 58 54
95 55 12 0 41 -10 65 -22z m2485 -3 c32 -8 70 -15 82 -15 20 0 23 -5 23 -42
l0 -41 -22 20 c-34 30 -77 50 -130 57 -39 6 -48 11 -48 27 0 15 5 19 18 15 9
-3 44 -12 77 -21z m640 -19 c18 -13 19 -19 7 -87 -7 -41 -19 -83 -27 -95 -8
-12 -60 -61 -117 -108 -99 -82 -105 -86 -153 -86 -27 -1 -68 -7 -90 -15 -22
-8 -41 -15 -43 -15 -5 0 30 44 94 116 77 86 91 108 111 173 20 61 61 95 141
117 60 16 55 16 77 0z m-609 -42 c67 -32 80 -59 60 -128 -18 -59 -35 -85 -131
-194 l-70 -80 -30 34 c-23 26 -39 34 -67 36 -21 1 -38 3 -38 3 0 1 31 71 70
156 38 85 70 164 70 176 0 39 48 38 136 -3z m357 -15 c34 -9 37 -12 31 -37
-17 -67 -70 -142 -211 -295 -44 -47 -45 -48 -80 -36 -41 13 -160 7 -193 -11
-12 -6 -23 -10 -25 -8 -2 2 33 44 77 93 81 92 118 149 118 184 0 51 28 71 143
101 86 23 91 23 140 9z m-2620 -294 c58 -15 180 -72 229 -107 31 -21 371 -195
433 -220 22 -10 74 -31 115 -48 41 -17 93 -39 115 -50 22 -10 72 -33 110 -51
79 -36 270 -149 300 -176 11 -10 46 -40 77 -66 105 -89 248 -290 248 -348 0
-5 -29 12 -64 38 -133 99 -312 214 -626 402 -269 162 -390 217 -390 178 0 -7
6 -36 14 -65 12 -46 7 -68 -9 -43 -3 6 -58 54 -122 108 -299 253 -373 299
-471 291 l-43 -3 51 -60 c78 -91 168 -219 191 -269 10 -25 31 -95 44 -156 28
-125 53 -179 96 -204 44 -26 143 -121 198 -190 74 -93 151 -225 151 -259 0
-73 -49 -207 -104 -285 l-31 -44 -11 94 c-7 51 -22 120 -35 153 -32 87 -252
405 -279 405 -4 0 -13 -15 -19 -32 -14 -39 -72 -138 -82 -138 -4 0 -5 28 -2
63 3 41 -1 80 -13 117 -11 36 -16 83 -15 137 3 109 -23 203 -95 341 -62 118
-76 138 -116 158 -60 31 -217 7 -308 -46 -100 -59 -115 -90 -113 -225 2 -91
30 -280 49 -330 7 -20 7 -20 -14 -1 -47 41 -82 146 -102 310 -25 199 8 330
104 411 25 22 68 59 93 83 64 58 158 102 262 123 109 22 115 22 184 4z m2070
-55 c43 -34 42 -52 -8 -126 -25 -38 -68 -112 -96 -166 l-50 -99 -34 32 c-31
30 -32 34 -19 54 8 12 35 85 59 163 28 86 52 145 63 151 27 16 57 13 85 -9z
m532 12 c-37 -32 -341 -242 -351 -242 -8 0 108 140 147 177 36 33 134 72 184
73 16 0 25 -4 20 -8z m-21 -75 c-45 -47 -134 -160 -178 -224 -16 -24 -41 -46
-58 -52 l-30 -11 38 48 c97 121 256 294 263 287 2 -3 -13 -24 -35 -48z m1242
40 c3 -3 -14 -52 -38 -110 l-44 -106 -28 19 c-70 45 -182 32 -272 -32 l-57
-41 6 69 c4 38 7 86 7 106 0 34 4 40 41 59 70 35 154 49 272 45 59 -2 110 -6
113 -9z m-1476 -6 c14 -4 25 -12 25 -19 0 -6 -41 -60 -92 -119 -75 -89 -103
-114 -157 -143 -75 -39 -81 -55 -7 -18 28 13 47 20 43 14 -50 -79 -66 -96 -81
-89 -9 4 -44 8 -79 8 -34 0 -62 3 -62 8 0 30 150 288 183 315 48 40 161 61
227 43z m1575 -25 c58 -27 145 -112 185 -181 l28 -49 -44 -87 c-24 -48 -48
-90 -53 -93 -5 -4 -15 11 -22 31 -38 117 -89 166 -191 184 -38 7 -67 15 -66
19 2 3 21 50 42 103 27 66 44 97 55 97 9 0 39 -11 66 -24z m-1427 -63 c-68
-75 -181 -210 -196 -235 -15 -25 -22 -28 -70 -28 -29 0 -62 -5 -73 -11 -39
-20 -38 -3 4 53 25 34 59 66 83 78 22 12 92 55 155 96 63 40 116 74 118 74 3
0 -7 -12 -21 -27z m888 -19 c-3 -26 -6 -75 -6 -110 l0 -64 -39 0 c-24 0 -48
-8 -62 -20 -29 -24 -22 -25 20 -4 19 9 42 13 57 10 24 -6 25 -8 22 -104 -3
-80 -6 -96 -18 -93 -8 2 -31 3 -51 2 l-36 -1 -8 82 c-4 46 -11 91 -16 100 -5
10 -12 46 -15 81 l-5 62 46 35 c56 42 97 68 109 69 5 1 6 -20 2 -45z m287 -80
c25 -8 50 -21 56 -28 7 -8 -3 -46 -36 -126 -25 -63 -47 -116 -49 -118 -1 -2
-20 6 -43 18 -23 11 -41 17 -41 12 0 -5 16 -16 35 -25 19 -9 35 -24 35 -32 0
-13 -84 -202 -94 -213 -2 -2 -19 4 -37 13 -23 12 -46 16 -79 12 l-47 -6 3 72
2 72 -11 -78 c-8 -61 -13 -77 -24 -72 -8 3 -27 5 -41 5 l-27 0 5 87 5 88 33 3
c18 2 40 -2 48 -9 11 -9 18 -6 35 15 24 30 62 52 116 66 37 9 36 10 -11 5 -32
-3 -61 -14 -83 -31 l-33 -25 0 99 c0 90 2 100 23 119 46 42 92 67 141 79 68
16 66 16 119 -2z m-2459 -39 c36 -43 37 -46 25 -84 l-12 -40 -33 27 c-34 28
-40 51 -28 111 4 17 8 31 9 31 1 0 19 -20 39 -45z m2672 -24 c23 -10 54 -35
68 -54 28 -37 66 -125 66 -153 0 -19 -85 -136 -129 -178 -32 -31 -33 -30 -45
26 -13 57 -85 115 -167 132 l-26 6 39 97 c22 54 44 108 49 121 7 19 16 22 56
22 27 0 67 -9 89 -19z m289 -83 c17 -46 17 -48 -3 -87 -12 -22 -35 -59 -51
-81 -28 -38 -30 -40 -40 -21 -6 11 -18 26 -26 35 -13 13 -9 25 37 115 29 55
56 97 59 93 4 -4 14 -28 24 -54z m-2742 -84 c40 -26 73 -48 75 -49 1 -1 -3
-16 -9 -33 l-11 -32 -57 52 c-52 47 -147 101 -179 101 -10 0 -12 10 -6 41 3
23 8 44 11 49 2 4 27 -13 54 -37 27 -25 82 -66 122 -92z m-239 77 c23 -24 26
-34 21 -65 -9 -46 -18 -51 -50 -30 -19 13 -25 25 -25 54 0 41 8 70 19 70 4 0
20 -13 35 -29z m696 -11 l21 -29 -24 -53 c-13 -29 -38 -85 -56 -125 l-34 -72
-36 25 c-43 29 -113 50 -199 59 -58 7 -62 9 -56 29 10 35 21 40 51 27 16 -8
58 -24 95 -36 l67 -24 62 115 c34 63 68 114 75 114 7 0 22 -13 34 -30z m446
-9 c-14 -21 -46 -80 -72 -131 -35 -68 -56 -98 -83 -115 -20 -12 -38 -21 -40
-19 -5 5 97 194 126 232 20 27 77 72 91 72 1 0 -9 -18 -22 -39z m-76 -12 c0
-6 -13 -29 -28 -52 -16 -23 -46 -77 -68 -119 -28 -56 -45 -78 -59 -79 -17 -1
-17 -2 -2 -6 20 -5 23 -23 5 -23 -7 0 -50 -27 -94 -59 l-82 -59 15 43 c14 43
38 61 112 86 19 7 16 7 -14 3 -22 -3 -46 -11 -54 -17 -23 -19 -5 26 58 148 54
104 60 111 102 127 50 19 109 23 109 7z m-201 -10 c18 -6 31 -15 29 -19 -3 -6
-130 -260 -135 -269 -2 -2 -8 1 -16 7 -7 6 -38 17 -69 24 l-56 13 55 116 c35
74 63 121 76 127 29 14 77 14 116 1z m-717 -49 c37 -23 84 -57 103 -77 36 -37
36 -40 14 -101 -11 -28 -14 -27 -147 73 -101 75 -101 75 -91 107 5 18 9 34 9
35 0 2 10 3 22 3 12 0 52 -18 90 -40z m2410 -86 c49 -25 68 -51 86 -118 11
-37 10 -40 -56 -132 l-67 -94 -22 50 c-23 52 -69 90 -110 90 -12 0 -24 4 -27
8 -2 4 11 44 30 87 20 44 42 95 49 113 13 29 17 32 42 26 15 -4 49 -17 75 -30z
m318 -23 c-1 -14 -11 -38 -23 -52 -12 -14 -49 -59 -81 -99 l-60 -74 -9 30 c-5
16 -14 35 -20 42 -10 13 -5 21 56 89 21 22 52 60 69 83 29 39 31 40 49 24 11
-9 19 -29 19 -43z m-2339 -62 c48 -24 54 -34 38 -70 -9 -24 -17 -30 -33 -26
-287 64 -276 59 -257 111 7 16 19 26 38 28 42 5 171 -21 214 -43z m188 -68
c18 -10 22 -18 16 -39 -3 -15 -9 -39 -12 -54 l-5 -28 -28 20 c-15 11 -49 29
-74 40 l-47 20 16 29 c8 16 23 31 32 33 23 5 72 -5 102 -21z m1582 -32 l29
-20 -35 -70 -35 -69 -32 16 c-17 9 -45 14 -63 12 l-32 -4 16 64 c13 48 23 67
41 78 36 19 78 17 111 -7z m377 -14 c20 -44 14 -60 -53 -150 -36 -48 -65 -81
-65 -73 0 9 -9 26 -19 39 l-19 24 65 93 c35 50 68 92 72 92 4 0 13 -11 19 -25z
m-532 -17 c-19 -96 -25 -108 -57 -108 l-30 0 7 63 c4 34 9 65 11 70 2 4 20 7
40 7 35 0 35 -1 29 -32z m282 -18 c30 -18 72 -90 72 -123 0 -16 -53 -117 -61
-117 -4 0 -12 13 -17 30 -15 43 -59 79 -104 86 -21 4 -38 11 -38 16 0 5 14 35
30 68 26 51 34 60 58 60 15 0 42 -9 60 -20z m-406 -105 c-6 -31 -13 -40 -35
-46 -16 -4 -27 -5 -25 -1 2 4 17 30 33 59 32 56 41 52 27 -12z m198 0 c33 -17
35 -21 17 -51 -12 -21 -13 -21 -68 -5 -49 14 -55 19 -49 36 6 17 31 30 63 34
4 1 21 -6 37 -14z m-116 -4 c11 -18 -6 -41 -30 -41 -25 0 -28 7 -18 34 7 17
39 22 48 7z m246 -36 c18 -9 40 -36 56 -67 25 -50 26 -53 10 -86 l-17 -34 -53
58 c-29 33 -65 65 -79 73 -25 13 -26 30 -4 59 13 16 52 15 87 -3z m195 -45 c4
-20 -2 -44 -21 -82 -24 -47 -28 -50 -35 -31 -4 12 -15 26 -25 31 -15 8 -14 15
16 71 35 66 52 69 65 11z m-377 -5 c28 -9 52 -19 52 -24 0 -5 -12 -24 -27 -44
-16 -19 -33 -43 -38 -52 -10 -16 -14 -16 -65 2 -39 12 -84 18 -152 18 -54 0
-98 3 -98 6 0 13 51 52 111 85 55 30 71 34 114 30 28 -3 74 -12 103 -21z
m-325 -70 c-20 -25 -43 -45 -50 -45 -13 0 -89 -40 -138 -73 -23 -16 -20 -10
15 27 25 26 70 62 100 79 30 18 64 37 75 44 37 21 36 13 -2 -32z m444 3 c72
-62 112 -122 139 -204 19 -59 32 -298 16 -308 -6 -3 -13 13 -17 42 -11 82 -89
227 -158 297 -34 34 -73 69 -86 78 l-24 16 36 56 c21 30 42 55 47 55 5 0 26
-15 47 -32z m190 -50 c11 -21 9 -34 -6 -79 l-19 -53 -23 47 c-22 45 -22 48 -6
83 19 39 36 40 54 2z m-418 -25 c25 -8 63 -27 85 -41 60 -37 167 -150 198
-207 95 -179 104 -545 16 -673 -41 -60 -161 -152 -325 -251 -89 -53 -179 -118
-253 -182 -133 -116 -161 -133 -202 -125 -68 13 -241 158 -254 212 -12 48 5
92 94 240 49 82 99 171 110 198 l22 48 52 -47 c74 -67 123 -98 198 -127 125
-49 140 -41 29 14 -93 47 -181 108 -242 170 -25 26 -44 84 -72 226 -28 138
-32 266 -11 315 14 34 59 79 141 141 136 105 277 135 414 89z m-2543 -293 c19
-57 33 -105 31 -107 -2 -2 -25 24 -50 56 l-46 60 12 50 c6 27 13 48 15 47 2
-2 19 -50 38 -106z m2973 -190 c1 -139 -14 -236 -45 -288 -15 -26 -15 -26 -8
23 3 28 8 102 9 165 2 63 9 146 15 184 6 38 9 95 6 125 l-5 56 14 -65 c8 -37
14 -123 14 -200z m-2978 100 c46 -58 94 -146 113 -207 5 -16 3 -23 -6 -23 -33
0 -92 -89 -118 -177 -7 -24 -16 -43 -20 -43 -4 0 -38 35 -76 77 -38 43 -90
101 -116 129 -27 28 -48 55 -48 60 0 5 16 20 36 33 51 35 104 99 138 165 15
31 32 56 36 54 5 -2 32 -32 61 -68z m-168 -321 l119 -129 -49 0 c-66 0 -169
-26 -204 -51 -18 -12 -34 -17 -43 -12 -53 31 -243 219 -254 252 -2 7 12 11 43
11 54 0 186 26 230 45 16 7 32 13 35 13 3 0 58 -58 123 -129z m-603 86 c36 -8
84 -14 107 -15 36 0 44 -4 62 -34 22 -35 154 -166 209 -206 35 -26 41 -40 16
-40 -28 0 -270 135 -359 201 -55 41 -124 109 -109 109 5 -1 38 -7 74 -15z
m925 -61 c11 -27 43 -93 72 -146 l52 -97 -24 -53 c-15 -33 -25 -71 -25 -100 0
-27 -3 -48 -7 -48 -5 0 -21 16 -36 35 -15 19 -66 78 -113 130 -58 67 -84 103
-84 121 0 66 99 223 134 211 6 -2 19 -26 31 -53z m-222 -171 c33 -5 50 -20
126 -107 48 -56 99 -117 114 -137 l27 -36 -67 4 c-38 3 -86 0 -108 -6 -36 -10
-42 -8 -65 13 -14 13 -67 51 -119 85 -52 35 -100 69 -108 77 -8 8 -23 19 -33
24 -40 21 7 54 110 76 67 15 75 15 123 7z m-242 -90 c16 -10 29 -21 29 -25 0
-6 -58 23 -79 39 -15 11 26 0 50 -14z m680 -95 c10 -21 32 -55 47 -76 15 -22
41 -59 58 -83 40 -56 51 -89 30 -89 -23 0 -53 -51 -61 -103 -9 -59 -17 -54
-81 52 -25 42 -64 100 -86 130 -40 52 -40 55 -36 120 3 41 14 83 27 110 l23
44 30 -34 c16 -19 38 -51 49 -71z m158 -178 c0 -31 -2 -33 -12 -17 -7 10 -36
51 -64 90 -29 40 -53 76 -53 82 0 5 29 -20 65 -55 56 -56 65 -69 64 -100z
m-283 26 c23 -25 61 -77 85 -118 23 -40 53 -88 67 -105 l24 -33 -63 -1 c-68
-1 -98 -4 -106 -13 -11 -11 -64 37 -85 77 -25 49 -116 174 -146 201 -12 10
-19 23 -16 27 3 5 48 9 101 9 l96 0 43 -44z m334 -66 c27 -54 111 -153 159
-187 34 -24 61 -72 61 -107 0 -16 -99 50 -141 95 -62 64 -119 167 -119 214 0
43 13 39 40 -15z m-10 -102 c45 -80 114 -149 178 -182 l51 -26 -24 -36 c-26
-38 -41 -96 -31 -113 7 -11 -8 -16 -74 -27 -67 -10 -122 -32 -151 -60 l-26
-25 -29 38 c-15 21 -53 67 -84 103 -32 38 -66 92 -80 125 -13 33 -28 66 -33
72 -15 20 40 35 109 31 59 -4 64 -6 120 -58 146 -137 200 -187 219 -199 25
-17 -95 101 -192 190 -60 54 -73 72 -73 96 0 63 37 133 69 133 9 0 31 -28 51
-62z m548 -293 c-2 -2 -42 8 -88 22 -47 14 -109 32 -139 41 -52 16 -91 53 -91
90 0 7 66 -21 161 -69 88 -44 159 -83 157 -84z m-198 42 c41 -14 113 -37 160
-51 74 -22 92 -32 138 -77 28 -29 52 -56 52 -60 0 -3 -13 -12 -29 -19 -55 -22
-95 -108 -103 -222 l-3 -37 -36 32 c-20 18 -105 93 -189 167 l-152 135 4 59
c4 49 9 63 32 83 16 13 33 22 40 19 6 -2 45 -16 86 -29z m-167 -152 c27 -14
312 -261 351 -304 19 -21 19 -21 -14 -21 -50 0 -139 -48 -196 -107 -29 -29
-57 -53 -64 -53 -16 0 -98 60 -131 97 -14 15 -61 88 -104 161 -42 72 -81 135
-86 138 -30 18 61 77 145 94 60 12 68 11 99 -5z m568 -110 c38 -68 59 -154 59
-247 0 -71 -21 -158 -38 -158 -4 0 -49 44 -101 97 l-94 97 7 68 c7 77 34 142
74 176 39 32 61 24 93 -33z m-172 -240 c29 -15 171 -161 171 -176 0 -5 -15
-16 -32 -26 -46 -23 -176 -28 -263 -10 -76 17 -165 53 -165 67 0 18 56 74 105
105 86 55 135 66 184 40z"/>
<path d="M5173 7105 c0 -27 2 -38 4 -22 2 15 2 37 0 50 -2 12 -4 0 -4 -28z"/>
<path d="M5161 7019 c-1 -39 -14 -54 -74 -84 -21 -11 -41 -23 -43 -27 -10 -16
14 -7 59 22 l47 30 0 -23 c0 -13 -5 -72 -11 -130 -6 -59 -9 -113 -6 -120 2 -6
9 44 16 113 7 68 15 128 18 133 3 5 14 -1 24 -12 22 -23 104 -81 116 -81 4 0
-15 15 -42 34 -72 49 -89 71 -96 129 -5 42 -6 45 -8 16z"/>
<path d="M4955 6879 c-36 -14 -41 -18 -19 -15 35 6 108 35 84 34 -8 0 -37 -9
-65 -19z"/>
<path d="M5092 6350 c0 -19 2 -27 5 -17 2 9 2 25 0 35 -3 9 -5 1 -5 -18z"/>
<path d="M5741 6023 c-1 -8 -15 -14 -33 -14 -32 -1 -32 -2 7 -9 22 -4 49 -4
60 1 19 7 19 8 -2 8 -12 1 -24 7 -26 14 -4 10 -6 10 -6 0z"/>
<path d="M5838 5993 c18 -2 45 -2 60 0 15 2 0 4 -33 4 -33 0 -45 -2 -27 -4z"/>
<path d="M5953 5983 c9 -2 25 -2 35 0 9 3 1 5 -18 5 -19 0 -27 -2 -17 -5z"/>
<path d="M6345 5909 c-4 -6 -5 -12 -2 -15 2 -3 7 2 10 11 7 17 1 20 -8 4z"/>
<path d="M5580 5878 c0 -5 18 -8 40 -8 22 0 40 2 40 4 0 2 -18 6 -40 8 -22 2
-40 0 -40 -4z"/>
<path d="M5716 5870 c-18 -6 -18 -7 4 -13 14 -3 28 -3 33 2 12 12 -14 20 -37
11z"/>
<path d="M5818 5853 c12 -2 30 -2 40 0 9 3 -1 5 -23 4 -22 0 -30 -2 -17 -4z"/>
<path d="M5948 5843 c6 -2 18 -2 25 0 6 3 1 5 -13 5 -14 0 -19 -2 -12 -5z"/>
<path d="M6060 5764 c-12 -19 -20 -38 -16 -41 3 -4 6 -1 6 5 0 6 12 24 26 41
14 17 21 31 16 31 -6 0 -20 -16 -32 -36z"/>
<path d="M6031 5624 c0 -11 3 -14 6 -6 3 7 2 16 -1 19 -3 4 -6 -2 -5 -13z"/>
<path d="M6790 6510 c0 -6 7 -10 15 -10 8 0 15 2 15 4 0 2 -7 6 -15 10 -8 3
-15 1 -15 -4z"/>
<path d="M6790 6470 c0 -5 12 -10 26 -10 14 0 23 4 19 10 -3 6 -15 10 -26 10
-10 0 -19 -4 -19 -10z"/>
<path d="M6780 6440 c0 -6 7 -10 15 -10 8 0 15 2 15 4 0 2 -7 6 -15 10 -8 3
-15 1 -15 -4z"/>
<path d="M6635 6349 c-4 -6 -5 -12 -2 -15 2 -3 7 2 10 11 7 17 1 20 -8 4z"/>
</g>
</svg>
